<?xml version="1.0" encoding="UTF-8"?>
<svg id="Layer_2" data-name="Layer 2" xmlns="http://www.w3.org/2000/svg" viewBox="0 0 468 675">
  <defs>
    <style>
      .cls-1, .cls-2 {
        fill: #231f20;
      }

      .cls-3 {
        fill: #fff;
      }

      .cls-4 {
        fill: none;
        stroke: #231f20;
        stroke-miterlimit: 10;
        stroke-width: .5px;
      }

      .cls-5 {
        opacity: .54;
      }

      .cls-2 {
        opacity: .1;
      }
    </style>
  </defs>
  <g id="background">
    <rect class="cls-3" width="468" height="675"/>
  </g>
  <g id="rectangles" class="cls-5">
    <rect class="cls-2" x="4.5" y="18" width="36" height="36"/>
    <rect class="cls-2" x="4.5" y="9" width="108" height="108"/>
    <rect class="cls-2" x="94.5" y="18" width="45" height="45"/>
    <rect class="cls-2" x="49.5" y="27" width="54" height="54"/>
    <rect class="cls-2" x="31.5" y="45" width="54" height="54"/>
    <rect class="cls-2" x="13.5" y="108" width="45" height="45"/>
    <rect class="cls-2" x="4.5" y="135" width="45" height="45"/>
    <rect class="cls-2" x="40.5" y="171" width="72" height="72"/>
    <rect class="cls-2" x="4.5" y="189" width="27" height="27"/>
    <rect class="cls-2" x="76.5" y="153" width="54" height="54"/>
    <rect class="cls-2" x="67.5" y="135" width="81" height="81"/>
    <rect class="cls-2" x="148.5" y="81" width="36" height="36"/>
    <rect class="cls-2" x="130.5" y="99" width="45" height="45"/>
    <rect class="cls-2" x="121.5" y="72" width="90" height="90"/>
    <rect class="cls-2" x="175.5" y="198" width="36" height="36"/>
    <rect class="cls-2" x="166.5" y="189" width="72" height="72"/>
    <rect class="cls-2" x="148.5" y="18" width="45" height="45"/>
    <rect class="cls-2" x="130.5" y="9" width="45" height="45"/>
    <rect class="cls-2" x="184.5" y="9" width="45" height="45"/>
    <rect class="cls-2" x="202.5" y="18" width="45" height="45"/>
    <rect class="cls-2" x="220.5" y="45" width="36" height="36"/>
    <rect class="cls-2" x="265.5" y="18" width="63" height="63"/>
    <rect class="cls-2" x="283.5" y="9" width="36" height="36"/>
    <rect class="cls-2" x="274.5" y="27" width="72" height="72"/>
    <rect class="cls-2" x="319.5" y="54" width="54" height="54"/>
    <rect class="cls-2" x="355.5" y="126" width="99" height="99"/>
    <rect class="cls-2" x="292.5" y="117" width="54" height="54"/>
    <rect class="cls-2" x="238.5" y="117" width="45" height="45"/>
    <rect class="cls-2" x="202.5" y="108" width="63" height="63"/>
    <rect class="cls-2" x="193.5" y="90" width="117" height="117"/>
    <rect class="cls-2" x="256.5" y="216" width="81" height="81"/>
    <rect class="cls-2" x="211.5" y="252" width="36" height="36"/>
    <rect class="cls-2" x="202.5" y="243" width="63" height="63"/>
    <rect class="cls-2" x="22.5" y="198" width="36" height="36"/>
    <rect class="cls-2" x="103.5" y="225" width="45" height="45"/>
    <rect class="cls-2" x="274.5" y="108" width="27" height="27"/>
    <rect class="cls-2" x="346.5" y="207" width="27" height="27"/>
    <rect class="cls-2" x="364.5" y="135" width="36" height="36"/>
    <rect class="cls-2" x="373.5" y="144" width="45" height="45"/>
    <rect class="cls-2" x="400.5" y="180" width="36" height="36"/>
    <rect class="cls-2" x="427.5" y="153" width="36" height="36"/>
    <rect class="cls-2" x="409.5" y="198" width="54" height="54"/>
    <rect class="cls-2" x="319.5" y="180" width="63" height="63"/>
    <rect class="cls-2" x="274.5" y="225" width="36" height="36"/>
    <rect class="cls-2" x="283.5" y="252" width="36" height="36"/>
    <rect class="cls-2" x="328.5" y="252" width="72" height="72"/>
    <rect class="cls-2" x="382.5" y="270" width="45" height="45"/>
    <rect class="cls-2" x="418.5" y="279" width="45" height="45"/>
    <rect class="cls-2" x="364.5" y="81" width="36" height="36"/>
    <rect class="cls-2" x="337.5" y="9" width="36" height="36"/>
    <rect class="cls-2" x="391.5" y="36" width="27" height="27"/>
    <rect class="cls-2" x="409.5" y="18" width="36" height="36"/>
    <rect class="cls-2" x="400.5" y="9" width="63" height="63"/>
    <rect class="cls-2" x="382.5" y="27" width="72" height="72"/>
    <rect class="cls-2" x="418.5" y="90" width="27" height="27"/>
    <rect class="cls-2" x="409.5" y="81" width="54" height="54"/>
    <rect class="cls-2" x="130.5" y="333" width="36" height="36"/>
    <rect class="cls-2" x="103.5" y="297" width="45" height="45"/>
    <rect class="cls-2" x="121.5" y="288" width="63" height="63"/>
    <rect class="cls-2" x="94.5" y="279" width="99" height="99"/>
    <rect class="cls-2" x="157.5" y="180" width="135" height="135"/>
    <rect class="cls-2" x="274.5" y="306" width="36" height="36"/>
    <rect class="cls-2" x="220.5" y="333" width="45" height="45"/>
    <rect class="cls-2" x="238.5" y="351" width="45" height="45"/>
    <rect class="cls-2" x="202.5" y="324" width="99" height="99"/>
    <rect class="cls-2" x="229.5" y="432" width="36" height="36"/>
    <rect class="cls-2" x="184.5" y="432" width="36" height="36"/>
    <rect class="cls-2" x="139.5" y="396" width="54" height="54"/>
    <rect class="cls-2" x="76.5" y="396" width="36" height="36"/>
    <rect class="cls-2" x="67.5" y="414" width="27" height="27"/>
    <rect class="cls-2" x="31.5" y="351" width="54" height="54"/>
    <rect class="cls-2" x="13.5" y="279" width="63" height="63"/>
    <rect class="cls-2" x="22.5" y="252" width="45" height="45"/>
    <rect class="cls-2" x="4.5" y="225" width="81" height="81"/>
    <rect class="cls-2" x="4.5" y="315" width="45" height="45"/>
    <rect class="cls-2" x="4.5" y="369" width="54" height="54"/>
    <rect class="cls-2" x="4.5" y="432" width="54" height="54"/>
    <rect class="cls-2" x="49.5" y="459" width="36" height="36"/>
    <rect class="cls-2" x="76.5" y="486" width="27" height="27"/>
    <rect class="cls-2" x="4.5" y="495" width="27" height="27"/>
    <rect class="cls-2" x="40.5" y="450" width="72" height="72"/>
    <rect class="cls-2" x="103.5" y="387" width="54" height="54"/>
    <rect class="cls-2" x="166.5" y="387" width="90" height="90"/>
    <rect class="cls-2" x="130.5" y="468" width="45" height="45"/>
    <rect class="cls-2" x="274.5" y="450" width="27" height="27"/>
    <rect class="cls-2" x="292.5" y="432" width="36" height="36"/>
    <rect class="cls-2" x="310.5" y="387" width="54" height="54"/>
    <rect class="cls-2" x="337.5" y="351" width="54" height="54"/>
    <rect class="cls-2" x="328.5" y="342" width="81" height="81"/>
    <rect class="cls-2" x="373.5" y="378" width="54" height="54"/>
    <rect class="cls-2" x="418.5" y="387" width="36" height="36"/>
    <rect class="cls-2" x="319.5" y="333" width="144" height="144"/>
    <rect class="cls-2" x="337.5" y="450" width="45" height="45"/>
    <rect class="cls-2" x="391.5" y="459" width="45" height="45"/>
    <rect class="cls-2" x="409.5" y="495" width="45" height="45"/>
    <rect class="cls-2" x="400.5" y="486" width="63" height="63"/>
    <rect class="cls-2" x="373.5" y="441" width="72" height="72"/>
    <rect class="cls-2" x="328.5" y="504" width="36" height="36"/>
    <rect class="cls-2" x="382.5" y="612" width="36" height="36"/>
    <rect class="cls-2" x="409.5" y="594" width="36" height="36"/>
    <rect class="cls-2" x="418.5" y="567" width="36" height="36"/>
    <rect class="cls-2" x="427.5" y="621" width="36" height="36"/>
    <rect class="cls-2" x="328.5" y="567" width="72" height="72"/>
    <rect class="cls-2" x="355.5" y="558" width="108" height="108"/>
    <rect class="cls-2" x="337.5" y="549" width="54" height="54"/>
    <rect class="cls-2" x="292.5" y="612" width="54" height="54"/>
    <rect class="cls-2" x="265.5" y="621" width="36" height="36"/>
    <rect class="cls-2" x="220.5" y="612" width="54" height="54"/>
    <rect class="cls-2" x="193.5" y="621" width="36" height="36"/>
    <rect class="cls-2" x="175.5" y="612" width="36" height="36"/>
    <rect class="cls-2" x="148.5" y="603" width="36" height="36"/>
    <rect class="cls-2" x="130.5" y="594" width="72" height="72"/>
    <rect class="cls-2" x="112.5" y="612" width="45" height="45"/>
    <rect class="cls-2" x="130.5" y="531" width="27" height="27"/>
    <rect class="cls-2" x="166.5" y="486" width="54" height="54"/>
    <rect class="cls-2" x="220.5" y="549" width="45" height="45"/>
    <rect class="cls-2" x="274.5" y="549" width="36" height="36"/>
    <rect class="cls-2" x="67.5" y="612" width="36" height="36"/>
    <rect class="cls-2" x="4.5" y="576" width="36" height="36"/>
    <rect class="cls-2" x="4.5" y="531" width="27" height="27"/>
    <rect class="cls-2" x="4.5" y="621" width="45" height="45"/>
    <rect class="cls-2" x="148.5" y="522" width="54" height="54"/>
    <rect class="cls-2" x="22.5" y="504" width="45" height="45"/>
    <rect class="cls-2" x="49.5" y="531" width="63" height="63"/>
    <rect class="cls-2" x="31.5" y="567" width="63" height="63"/>
    <rect class="cls-2" x="58.5" y="603" width="63" height="63"/>
    <rect class="cls-2" x="229.5" y="504" width="63" height="63"/>
    <rect class="cls-2" x="211.5" y="495" width="108" height="108"/>
    <rect class="cls-2" x="256.5" y="486" width="90" height="90"/>
    <rect class="cls-2" x="121.5" y="459" width="126" height="126"/>
    <rect class="cls-2" x="346.5" y="261" width="108" height="108"/>
  </g>
  <g id="lines">
    <line class="cls-4" x1="157.5" y1="180" x2="292.5" y2="180"/>
    <line class="cls-4" x1="292.5" y1="198" x2="292.5" y2="180"/>
    <line class="cls-4" x1="157.5" y1="315" x2="157.5" y2="180"/>
    <line class="cls-4" x1="292.5" y1="315" x2="157.5" y2="315"/>
    <line class="cls-4" x1="292.5" y1="234" x2="292.5" y2="315"/>
    <line class="cls-4" x1="256.5" y1="297" x2="256.5" y2="216"/>
    <line class="cls-4" x1="337.5" y1="216" x2="256.5" y2="216"/>
    <line class="cls-4" x1="337.5" y1="297" x2="337.5" y2="216"/>
    <line class="cls-4" x1="301.5" y1="297" x2="337.5" y2="297"/>
    <line class="cls-4" x1="283.5" y1="297" x2="256.5" y2="297"/>
    <line class="cls-4" x1="265.5" y1="306" x2="202.5" y2="306"/>
    <line class="cls-4" x1="202.5" y1="243" x2="202.5" y2="306"/>
    <line class="cls-4" x1="247.5" y1="243" x2="202.5" y2="243"/>
    <line class="cls-4" x1="265.5" y1="243" x2="265.5" y2="306"/>
    <line class="cls-4" x1="247.5" y1="252" x2="247.5" y2="288"/>
    <line class="cls-4" x1="211.5" y1="252" x2="211.5" y2="288"/>
    <line class="cls-4" x1="247.5" y1="288" x2="211.5" y2="288"/>
    <line class="cls-4" x1="211.5" y1="252" x2="229.5" y2="252"/>
    <line class="cls-4" x1="220.5" y1="261" x2="238.5" y2="261"/>
    <line class="cls-4" x1="238.5" y1="189" x2="238.5" y2="261"/>
    <line class="cls-4" x1="166.5" y1="189" x2="238.5" y2="189"/>
    <line class="cls-4" x1="166.5" y1="261" x2="166.5" y2="189"/>
    <line class="cls-4" x1="193.5" y1="261" x2="166.5" y2="261"/>
    <line class="cls-4" x1="175.5" y1="198" x2="175.5" y2="234"/>
    <line class="cls-4" x1="211.5" y1="216" x2="211.5" y2="234"/>
    <line class="cls-4" x1="175.5" y1="234" x2="211.5" y2="234"/>
    <line class="cls-4" x1="175.5" y1="198" x2="211.5" y2="198"/>
    <line class="cls-4" x1="193.5" y1="207" x2="310.5" y2="207"/>
    <line class="cls-4" x1="310.5" y1="90" x2="310.5" y2="207"/>
    <line class="cls-4" x1="193.5" y1="171" x2="193.5" y2="90"/>
    <line class="cls-4" x1="310.5" y1="90" x2="193.5" y2="90"/>
    <line class="cls-4" x1="211.5" y1="99" x2="211.5" y2="162"/>
    <line class="cls-4" x1="121.5" y1="162" x2="211.5" y2="162"/>
    <line class="cls-4" x1="202.5" y1="153" x2="202.5" y2="108"/>
    <line class="cls-4" x1="265.5" y1="108" x2="265.5" y2="171"/>
    <line class="cls-4" x1="202.5" y1="171" x2="265.5" y2="171"/>
    <line class="cls-4" x1="202.5" y1="108" x2="265.5" y2="108"/>
    <line class="cls-4" x1="238.5" y1="117" x2="256.5" y2="117"/>
    <line class="cls-4" x1="238.5" y1="162" x2="238.5" y2="117"/>
    <line class="cls-4" x1="283.5" y1="117" x2="283.5" y2="162"/>
    <line class="cls-4" x1="238.5" y1="162" x2="283.5" y2="162"/>
    <line class="cls-4" x1="274.5" y1="108" x2="274.5" y2="135"/>
    <line class="cls-4" x1="301.5" y1="108" x2="274.5" y2="108"/>
    <line class="cls-4" x1="301.5" y1="135" x2="301.5" y2="108"/>
    <line class="cls-4" x1="292.5" y1="117" x2="292.5" y2="171"/>
    <line class="cls-4" x1="319.5" y1="117" x2="346.5" y2="117"/>
    <line class="cls-4" x1="346.5" y1="171" x2="346.5" y2="117"/>
    <line class="cls-4" x1="292.5" y1="171" x2="346.5" y2="171"/>
    <line class="cls-4" x1="121.5" y1="72" x2="211.5" y2="72"/>
    <line class="cls-4" x1="211.5" y1="81" x2="211.5" y2="72"/>
    <line class="cls-4" x1="121.5" y1="162" x2="121.5" y2="72"/>
    <line class="cls-4" x1="130.5" y1="126" x2="130.5" y2="99"/>
    <line class="cls-4" x1="175.5" y1="99" x2="130.5" y2="99"/>
    <line class="cls-4" x1="130.5" y1="144" x2="175.5" y2="144"/>
    <line class="cls-4" x1="175.5" y1="99" x2="175.5" y2="144"/>
    <line class="cls-4" x1="166.5" y1="117" x2="148.5" y2="117"/>
    <line class="cls-4" x1="148.5" y1="81" x2="148.5" y2="117"/>
    <line class="cls-4" x1="184.5" y1="117" x2="184.5" y2="81"/>
    <line class="cls-4" x1="148.5" y1="81" x2="184.5" y2="81"/>
    <line class="cls-4" x1="130.5" y1="207" x2="121.5" y2="207"/>
    <line class="cls-4" x1="103.5" y1="207" x2="76.5" y2="207"/>
    <line class="cls-4" x1="76.5" y1="153" x2="76.5" y2="207"/>
    <line class="cls-4" x1="130.5" y1="153" x2="76.5" y2="153"/>
    <line class="cls-4" x1="130.5" y1="207" x2="130.5" y2="153"/>
    <line class="cls-4" x1="148.5" y1="153" x2="148.5" y2="135"/>
    <line class="cls-4" x1="67.5" y1="135" x2="148.5" y2="135"/>
    <line class="cls-4" x1="67.5" y1="216" x2="67.5" y2="135"/>
    <line class="cls-4" x1="148.5" y1="216" x2="67.5" y2="216"/>
    <line class="cls-4" x1="148.5" y1="171" x2="148.5" y2="216"/>
    <line class="cls-4" x1="85.5" y1="171" x2="112.5" y2="171"/>
    <line class="cls-4" x1="112.5" y1="243" x2="112.5" y2="171"/>
    <line class="cls-4" x1="40.5" y1="243" x2="112.5" y2="243"/>
    <line class="cls-4" x1="40.5" y1="171" x2="40.5" y2="243"/>
    <line class="cls-4" x1="49.5" y1="180" x2="4.5" y2="180"/>
    <line class="cls-4" x1="49.5" y1="135" x2="49.5" y2="180"/>
    <line class="cls-4" x1="4.5" y1="180" x2="4.5" y2="135"/>
    <line class="cls-4" x1="22.5" y1="135" x2="49.5" y2="135"/>
    <line class="cls-4" x1="58.5" y1="126" x2="58.5" y2="153"/>
    <line class="cls-4" x1="13.5" y1="153" x2="58.5" y2="153"/>
    <line class="cls-4" x1="13.5" y1="108" x2="13.5" y2="153"/>
    <line class="cls-4" x1="58.5" y1="108" x2="13.5" y2="108"/>
    <line class="cls-4" x1="112.5" y1="117" x2="4.5" y2="117"/>
    <line class="cls-4" x1="4.5" y1="63" x2="4.5" y2="117"/>
    <line class="cls-4" x1="4.5" y1="54" x2="4.5" y2="18"/>
    <line class="cls-4" x1="112.5" y1="9" x2="4.5" y2="9"/>
    <line class="cls-4" x1="112.5" y1="9" x2="112.5" y2="117"/>
    <line class="cls-4" x1="4.5" y1="18" x2="40.5" y2="18"/>
    <line class="cls-4" x1="40.5" y1="36" x2="40.5" y2="18"/>
    <line class="cls-4" x1="4.5" y1="54" x2="40.5" y2="54"/>
    <line class="cls-4" x1="31.5" y1="45" x2="85.5" y2="45"/>
    <line class="cls-4" x1="31.5" y1="63" x2="31.5" y2="99"/>
    <line class="cls-4" x1="85.5" y1="99" x2="85.5" y2="45"/>
    <line class="cls-4" x1="31.5" y1="99" x2="85.5" y2="99"/>
    <line class="cls-4" x1="49.5" y1="54" x2="49.5" y2="81"/>
    <line class="cls-4" x1="103.5" y1="81" x2="49.5" y2="81"/>
    <line class="cls-4" x1="49.5" y1="36" x2="49.5" y2="27"/>
    <line class="cls-4" x1="103.5" y1="81" x2="103.5" y2="27"/>
    <line class="cls-4" x1="49.5" y1="27" x2="103.5" y2="27"/>
    <line class="cls-4" x1="103.5" y1="18" x2="94.5" y2="18"/>
    <line class="cls-4" x1="139.5" y1="63" x2="94.5" y2="63"/>
    <line class="cls-4" x1="94.5" y1="18" x2="94.5" y2="63"/>
    <line class="cls-4" x1="121.5" y1="18" x2="139.5" y2="18"/>
    <line class="cls-4" x1="139.5" y1="63" x2="139.5" y2="18"/>
    <line class="cls-4" x1="130.5" y1="54" x2="130.5" y2="9"/>
    <line class="cls-4" x1="175.5" y1="9" x2="130.5" y2="9"/>
    <line class="cls-4" x1="157.5" y1="54" x2="175.5" y2="54"/>
    <line class="cls-4" x1="175.5" y1="9" x2="175.5" y2="54"/>
    <line class="cls-4" x1="148.5" y1="63" x2="148.5" y2="18"/>
    <line class="cls-4" x1="193.5" y1="18" x2="148.5" y2="18"/>
    <line class="cls-4" x1="193.5" y1="63" x2="148.5" y2="63"/>
    <line class="cls-4" x1="193.5" y1="45" x2="193.5" y2="18"/>
    <line class="cls-4" x1="211.5" y1="54" x2="184.5" y2="54"/>
    <line class="cls-4" x1="184.5" y1="9" x2="184.5" y2="54"/>
    <line class="cls-4" x1="229.5" y1="9" x2="184.5" y2="9"/>
    <line class="cls-4" x1="229.5" y1="54" x2="229.5" y2="9"/>
    <line class="cls-4" x1="247.5" y1="18" x2="202.5" y2="18"/>
    <line class="cls-4" x1="202.5" y1="63" x2="202.5" y2="18"/>
    <line class="cls-4" x1="247.5" y1="63" x2="202.5" y2="63"/>
    <line class="cls-4" x1="247.5" y1="54" x2="247.5" y2="63"/>
    <line class="cls-4" x1="247.5" y1="36" x2="247.5" y2="18"/>
    <line class="cls-4" x1="238.5" y1="45" x2="256.5" y2="45"/>
    <line class="cls-4" x1="220.5" y1="45" x2="220.5" y2="81"/>
    <line class="cls-4" x1="256.5" y1="81" x2="220.5" y2="81"/>
    <line class="cls-4" x1="256.5" y1="45" x2="256.5" y2="81"/>
    <line class="cls-4" x1="265.5" y1="18" x2="265.5" y2="81"/>
    <line class="cls-4" x1="328.5" y1="81" x2="265.5" y2="81"/>
    <line class="cls-4" x1="328.5" y1="63" x2="328.5" y2="81"/>
    <line class="cls-4" x1="319.5" y1="72" x2="319.5" y2="54"/>
    <line class="cls-4" x1="328.5" y1="45" x2="328.5" y2="18"/>
    <line class="cls-4" x1="265.5" y1="18" x2="328.5" y2="18"/>
    <line class="cls-4" x1="319.5" y1="9" x2="283.5" y2="9"/>
    <line class="cls-4" x1="319.5" y1="45" x2="319.5" y2="36"/>
    <line class="cls-4" x1="283.5" y1="9" x2="283.5" y2="45"/>
    <line class="cls-4" x1="319.5" y1="45" x2="283.5" y2="45"/>
    <line class="cls-4" x1="346.5" y1="27" x2="274.5" y2="27"/>
    <line class="cls-4" x1="274.5" y1="99" x2="274.5" y2="27"/>
    <line class="cls-4" x1="346.5" y1="27" x2="346.5" y2="99"/>
    <line class="cls-4" x1="328.5" y1="99" x2="346.5" y2="99"/>
    <line class="cls-4" x1="301.5" y1="99" x2="274.5" y2="99"/>
    <line class="cls-4" x1="319.5" y1="54" x2="373.5" y2="54"/>
    <line class="cls-4" x1="373.5" y1="108" x2="373.5" y2="54"/>
    <line class="cls-4" x1="319.5" y1="108" x2="373.5" y2="108"/>
    <line class="cls-4" x1="319.5" y1="90" x2="319.5" y2="108"/>
    <line class="cls-4" x1="355.5" y1="45" x2="373.5" y2="45"/>
    <line class="cls-4" x1="373.5" y1="9" x2="373.5" y2="45"/>
    <line class="cls-4" x1="337.5" y1="9" x2="373.5" y2="9"/>
    <line class="cls-4" x1="337.5" y1="45" x2="337.5" y2="9"/>
    <line class="cls-4" x1="382.5" y1="27" x2="454.5" y2="27"/>
    <line class="cls-4" x1="400.5" y1="9" x2="463.5" y2="9"/>
    <line class="cls-4" x1="463.5" y1="72" x2="463.5" y2="9"/>
    <line class="cls-4" x1="445.5" y1="72" x2="400.5" y2="72"/>
    <line class="cls-4" x1="400.5" y1="9" x2="400.5" y2="72"/>
    <line class="cls-4" x1="418.5" y1="36" x2="418.5" y2="63"/>
    <line class="cls-4" x1="391.5" y1="63" x2="418.5" y2="63"/>
    <line class="cls-4" x1="391.5" y1="36" x2="391.5" y2="63"/>
    <line class="cls-4" x1="409.5" y1="54" x2="409.5" y2="18"/>
    <line class="cls-4" x1="445.5" y1="18" x2="409.5" y2="18"/>
    <line class="cls-4" x1="427.5" y1="54" x2="445.5" y2="54"/>
    <line class="cls-4" x1="445.5" y1="18" x2="445.5" y2="54"/>
    <line class="cls-4" x1="454.5" y1="27" x2="454.5" y2="99"/>
    <line class="cls-4" x1="427.5" y1="99" x2="454.5" y2="99"/>
    <line class="cls-4" x1="391.5" y1="99" x2="382.5" y2="99"/>
    <line class="cls-4" x1="382.5" y1="27" x2="382.5" y2="99"/>
    <line class="cls-4" x1="391.5" y1="81" x2="400.5" y2="81"/>
    <line class="cls-4" x1="364.5" y1="81" x2="364.5" y2="117"/>
    <line class="cls-4" x1="400.5" y1="117" x2="364.5" y2="117"/>
    <line class="cls-4" x1="400.5" y1="81" x2="400.5" y2="117"/>
    <line class="cls-4" x1="409.5" y1="117" x2="409.5" y2="81"/>
    <line class="cls-4" x1="463.5" y1="81" x2="409.5" y2="81"/>
    <line class="cls-4" x1="463.5" y1="135" x2="463.5" y2="81"/>
    <line class="cls-4" x1="409.5" y1="135" x2="463.5" y2="135"/>
    <line class="cls-4" x1="445.5" y1="108" x2="445.5" y2="117"/>
    <line class="cls-4" x1="418.5" y1="90" x2="445.5" y2="90"/>
    <line class="cls-4" x1="418.5" y1="117" x2="418.5" y2="90"/>
    <line class="cls-4" x1="445.5" y1="117" x2="418.5" y2="117"/>
    <line class="cls-4" x1="454.5" y1="126" x2="355.5" y2="126"/>
    <line class="cls-4" x1="355.5" y1="225" x2="355.5" y2="126"/>
    <line class="cls-4" x1="364.5" y1="225" x2="355.5" y2="225"/>
    <line class="cls-4" x1="391.5" y1="225" x2="454.5" y2="225"/>
    <line class="cls-4" x1="454.5" y1="126" x2="454.5" y2="225"/>
    <line class="cls-4" x1="418.5" y1="216" x2="436.5" y2="216"/>
    <line class="cls-4" x1="436.5" y1="180" x2="436.5" y2="216"/>
    <line class="cls-4" x1="400.5" y1="180" x2="436.5" y2="180"/>
    <line class="cls-4" x1="400.5" y1="216" x2="400.5" y2="180"/>
    <line class="cls-4" x1="427.5" y1="198" x2="409.5" y2="198"/>
    <line class="cls-4" x1="409.5" y1="252" x2="409.5" y2="198"/>
    <line class="cls-4" x1="445.5" y1="198" x2="463.5" y2="198"/>
    <line class="cls-4" x1="463.5" y1="252" x2="463.5" y2="198"/>
    <line class="cls-4" x1="409.5" y1="252" x2="463.5" y2="252"/>
    <line class="cls-4" x1="346.5" y1="207" x2="346.5" y2="234"/>
    <line class="cls-4" x1="373.5" y1="234" x2="346.5" y2="234"/>
    <line class="cls-4" x1="373.5" y1="207" x2="373.5" y2="234"/>
    <line class="cls-4" x1="364.5" y1="207" x2="373.5" y2="207"/>
    <line class="cls-4" x1="364.5" y1="180" x2="319.5" y2="180"/>
    <line class="cls-4" x1="319.5" y1="243" x2="319.5" y2="180"/>
    <line class="cls-4" x1="382.5" y1="243" x2="319.5" y2="243"/>
    <line class="cls-4" x1="382.5" y1="180" x2="382.5" y2="243"/>
    <line class="cls-4" x1="400.5" y1="135" x2="364.5" y2="135"/>
    <line class="cls-4" x1="364.5" y1="171" x2="364.5" y2="135"/>
    <line class="cls-4" x1="400.5" y1="171" x2="364.5" y2="171"/>
    <line class="cls-4" x1="400.5" y1="153" x2="400.5" y2="171"/>
    <line class="cls-4" x1="373.5" y1="144" x2="373.5" y2="189"/>
    <line class="cls-4" x1="391.5" y1="189" x2="418.5" y2="189"/>
    <line class="cls-4" x1="418.5" y1="144" x2="418.5" y2="189"/>
    <line class="cls-4" x1="373.5" y1="144" x2="418.5" y2="144"/>
    <line class="cls-4" x1="427.5" y1="153" x2="427.5" y2="189"/>
    <line class="cls-4" x1="445.5" y1="189" x2="463.5" y2="189"/>
    <line class="cls-4" x1="463.5" y1="153" x2="463.5" y2="189"/>
    <line class="cls-4" x1="427.5" y1="153" x2="463.5" y2="153"/>
    <line class="cls-4" x1="283.5" y1="252" x2="283.5" y2="288"/>
    <line class="cls-4" x1="319.5" y1="288" x2="283.5" y2="288"/>
    <line class="cls-4" x1="319.5" y1="252" x2="319.5" y2="288"/>
    <line class="cls-4" x1="301.5" y1="252" x2="319.5" y2="252"/>
    <line class="cls-4" x1="301.5" y1="261" x2="310.5" y2="261"/>
    <line class="cls-4" x1="310.5" y1="225" x2="310.5" y2="261"/>
    <line class="cls-4" x1="274.5" y1="225" x2="310.5" y2="225"/>
    <line class="cls-4" x1="274.5" y1="261" x2="274.5" y2="225"/>
    <line class="cls-4" x1="283.5" y1="306" x2="274.5" y2="306"/>
    <line class="cls-4" x1="301.5" y1="306" x2="310.5" y2="306"/>
    <line class="cls-4" x1="310.5" y1="342" x2="310.5" y2="306"/>
    <line class="cls-4" x1="274.5" y1="306" x2="274.5" y2="342"/>
    <line class="cls-4" x1="310.5" y1="342" x2="274.5" y2="342"/>
    <line class="cls-4" x1="103.5" y1="225" x2="103.5" y2="270"/>
    <line class="cls-4" x1="121.5" y1="225" x2="148.5" y2="225"/>
    <line class="cls-4" x1="148.5" y1="270" x2="148.5" y2="225"/>
    <line class="cls-4" x1="103.5" y1="270" x2="148.5" y2="270"/>
    <line class="cls-4" x1="31.5" y1="189" x2="4.5" y2="189"/>
    <line class="cls-4" x1="4.5" y1="216" x2="4.5" y2="189"/>
    <line class="cls-4" x1="31.5" y1="216" x2="4.5" y2="216"/>
    <line class="cls-4" x1="31.5" y1="207" x2="31.5" y2="216"/>
    <line class="cls-4" x1="31.5" y1="198" x2="22.5" y2="198"/>
    <line class="cls-4" x1="49.5" y1="198" x2="58.5" y2="198"/>
    <line class="cls-4" x1="58.5" y1="234" x2="58.5" y2="198"/>
    <line class="cls-4" x1="22.5" y1="234" x2="58.5" y2="234"/>
    <line class="cls-4" x1="22.5" y1="198" x2="22.5" y2="234"/>
    <line class="cls-4" x1="85.5" y1="234" x2="85.5" y2="225"/>
    <line class="cls-4" x1="4.5" y1="225" x2="85.5" y2="225"/>
    <line class="cls-4" x1="4.5" y1="306" x2="4.5" y2="225"/>
    <line class="cls-4" x1="85.5" y1="306" x2="4.5" y2="306"/>
    <line class="cls-4" x1="85.5" y1="252" x2="85.5" y2="306"/>
    <line class="cls-4" x1="67.5" y1="270" x2="67.5" y2="252"/>
    <line class="cls-4" x1="22.5" y1="252" x2="67.5" y2="252"/>
    <line class="cls-4" x1="22.5" y1="297" x2="22.5" y2="252"/>
    <line class="cls-4" x1="67.5" y1="297" x2="22.5" y2="297"/>
    <line class="cls-4" x1="67.5" y1="288" x2="67.5" y2="297"/>
    <line class="cls-4" x1="13.5" y1="297" x2="13.5" y2="279"/>
    <line class="cls-4" x1="76.5" y1="279" x2="13.5" y2="279"/>
    <line class="cls-4" x1="76.5" y1="342" x2="76.5" y2="279"/>
    <line class="cls-4" x1="13.5" y1="342" x2="76.5" y2="342"/>
    <line class="cls-4" x1="13.5" y1="324" x2="13.5" y2="342"/>
    <line class="cls-4" x1="49.5" y1="333" x2="49.5" y2="315"/>
    <line class="cls-4" x1="4.5" y1="315" x2="49.5" y2="315"/>
    <line class="cls-4" x1="4.5" y1="360" x2="4.5" y2="315"/>
    <line class="cls-4" x1="49.5" y1="360" x2="4.5" y2="360"/>
    <line class="cls-4" x1="31.5" y1="351" x2="85.5" y2="351"/>
    <line class="cls-4" x1="85.5" y1="405" x2="85.5" y2="351"/>
    <line class="cls-4" x1="31.5" y1="405" x2="85.5" y2="405"/>
    <line class="cls-4" x1="31.5" y1="378" x2="31.5" y2="405"/>
    <line class="cls-4" x1="58.5" y1="396" x2="58.5" y2="369"/>
    <line class="cls-4" x1="4.5" y1="369" x2="58.5" y2="369"/>
    <line class="cls-4" x1="58.5" y1="423" x2="4.5" y2="423"/>
    <line class="cls-4" x1="4.5" y1="369" x2="4.5" y2="423"/>
    <line class="cls-4" x1="67.5" y1="414" x2="67.5" y2="441"/>
    <line class="cls-4" x1="94.5" y1="441" x2="67.5" y2="441"/>
    <line class="cls-4" x1="94.5" y1="414" x2="94.5" y2="441"/>
    <line class="cls-4" x1="85.5" y1="414" x2="94.5" y2="414"/>
    <line class="cls-4" x1="76.5" y1="396" x2="76.5" y2="432"/>
    <line class="cls-4" x1="112.5" y1="432" x2="76.5" y2="432"/>
    <line class="cls-4" x1="112.5" y1="396" x2="112.5" y2="432"/>
    <line class="cls-4" x1="94.5" y1="396" x2="112.5" y2="396"/>
    <line class="cls-4" x1="103.5" y1="423" x2="103.5" y2="387"/>
    <line class="cls-4" x1="157.5" y1="387" x2="103.5" y2="387"/>
    <line class="cls-4" x1="157.5" y1="441" x2="157.5" y2="387"/>
    <line class="cls-4" x1="103.5" y1="441" x2="157.5" y2="441"/>
    <line class="cls-4" x1="58.5" y1="441" x2="58.5" y2="432"/>
    <line class="cls-4" x1="4.5" y1="432" x2="58.5" y2="432"/>
    <line class="cls-4" x1="4.5" y1="486" x2="4.5" y2="432"/>
    <line class="cls-4" x1="58.5" y1="486" x2="4.5" y2="486"/>
    <line class="cls-4" x1="58.5" y1="468" x2="58.5" y2="486"/>
    <line class="cls-4" x1="40.5" y1="450" x2="40.5" y2="522"/>
    <line class="cls-4" x1="112.5" y1="522" x2="40.5" y2="522"/>
    <line class="cls-4" x1="112.5" y1="450" x2="112.5" y2="522"/>
    <line class="cls-4" x1="40.5" y1="450" x2="112.5" y2="450"/>
    <line class="cls-4" x1="49.5" y1="477" x2="49.5" y2="459"/>
    <line class="cls-4" x1="85.5" y1="459" x2="49.5" y2="459"/>
    <line class="cls-4" x1="85.5" y1="495" x2="85.5" y2="459"/>
    <line class="cls-4" x1="49.5" y1="495" x2="85.5" y2="495"/>
    <line class="cls-4" x1="76.5" y1="486" x2="76.5" y2="513"/>
    <line class="cls-4" x1="103.5" y1="513" x2="76.5" y2="513"/>
    <line class="cls-4" x1="103.5" y1="486" x2="103.5" y2="513"/>
    <line class="cls-4" x1="94.5" y1="486" x2="103.5" y2="486"/>
    <line class="cls-4" x1="67.5" y1="513" x2="67.5" y2="504"/>
    <line class="cls-4" x1="22.5" y1="504" x2="67.5" y2="504"/>
    <line class="cls-4" x1="22.5" y1="549" x2="22.5" y2="504"/>
    <line class="cls-4" x1="67.5" y1="549" x2="22.5" y2="549"/>
    <line class="cls-4" x1="67.5" y1="540" x2="67.5" y2="549"/>
    <line class="cls-4" x1="49.5" y1="531" x2="112.5" y2="531"/>
    <line class="cls-4" x1="112.5" y1="594" x2="112.5" y2="531"/>
    <line class="cls-4" x1="49.5" y1="594" x2="49.5" y2="531"/>
    <line class="cls-4" x1="103.5" y1="594" x2="112.5" y2="594"/>
    <line class="cls-4" x1="85.5" y1="594" x2="49.5" y2="594"/>
    <line class="cls-4" x1="31.5" y1="522" x2="31.5" y2="495"/>
    <line class="cls-4" x1="4.5" y1="495" x2="31.5" y2="495"/>
    <line class="cls-4" x1="4.5" y1="522" x2="4.5" y2="495"/>
    <line class="cls-4" x1="13.5" y1="522" x2="4.5" y2="522"/>
    <line class="cls-4" x1="4.5" y1="531" x2="31.5" y2="531"/>
    <line class="cls-4" x1="31.5" y1="558" x2="4.5" y2="558"/>
    <line class="cls-4" x1="4.5" y1="531" x2="4.5" y2="558"/>
    <line class="cls-4" x1="31.5" y1="567" x2="94.5" y2="567"/>
    <line class="cls-4" x1="94.5" y1="630" x2="94.5" y2="567"/>
    <line class="cls-4" x1="76.5" y1="630" x2="94.5" y2="629.98"/>
    <line class="cls-4" x1="31.5" y1="567" x2="31.5" y2="630"/>
    <line class="cls-4" x1="40.5" y1="576" x2="4.5" y2="576"/>
    <line class="cls-4" x1="4.5" y1="612" x2="4.5" y2="576"/>
    <line class="cls-4" x1="40.5" y1="612" x2="40.5" y2="576"/>
    <line class="cls-4" x1="4.5" y1="612" x2="22.5" y2="612"/>
    <line class="cls-4" x1="22.5" y1="621" x2="4.5" y2="621"/>
    <line class="cls-4" x1="4.5" y1="666" x2="4.5" y2="621"/>
    <line class="cls-4" x1="49.5" y1="666" x2="4.5" y2="666"/>
    <line class="cls-4" x1="49.5" y1="666" x2="49.5" y2="621"/>
    <line class="cls-4" x1="58.5" y1="603" x2="58.5" y2="666"/>
    <line class="cls-4" x1="121.5" y1="666" x2="58.5" y2="666"/>
    <line class="cls-4" x1="121.5" y1="603" x2="121.5" y2="666"/>
    <line class="cls-4" x1="58.5" y1="603" x2="121.5" y2="603"/>
    <line class="cls-4" x1="112.5" y1="612" x2="112.5" y2="657"/>
    <line class="cls-4" x1="157.5" y1="657" x2="112.5" y2="657"/>
    <line class="cls-4" x1="157.5" y1="612" x2="157.5" y2="657"/>
    <line class="cls-4" x1="130.5" y1="594" x2="202.5" y2="594"/>
    <line class="cls-4" x1="202.5" y1="603" x2="202.5" y2="594"/>
    <line class="cls-4" x1="130.5" y1="666" x2="130.5" y2="594"/>
    <line class="cls-4" x1="202.5" y1="666" x2="130.5" y2="666"/>
    <line class="cls-4" x1="202.5" y1="621" x2="202.5" y2="666"/>
    <line class="cls-4" x1="67.5" y1="612" x2="67.5" y2="648"/>
    <line class="cls-4" x1="67.5" y1="648" x2="103.5" y2="648"/>
    <line class="cls-4" x1="67.5" y1="612" x2="85.5" y2="612"/>
    <line class="cls-4" x1="103.5" y1="648" x2="103.5" y2="612"/>
    <line class="cls-4" x1="148.5" y1="639" x2="166.5" y2="639"/>
    <line class="cls-4" x1="148.5" y1="603" x2="148.5" y2="639"/>
    <line class="cls-4" x1="184.5" y1="603" x2="148.5" y2="603"/>
    <line class="cls-4" x1="184.5" y1="639" x2="184.5" y2="603"/>
    <line class="cls-4" x1="184.5" y1="648" x2="175.5" y2="648"/>
    <line class="cls-4" x1="175.5" y1="612" x2="175.5" y2="648"/>
    <line class="cls-4" x1="211.5" y1="612" x2="175.5" y2="612"/>
    <line class="cls-4" x1="211.5" y1="648" x2="211.5" y2="612"/>
    <line class="cls-4" x1="193.5" y1="621" x2="193.5" y2="657"/>
    <line class="cls-4" x1="229.5" y1="657" x2="193.5" y2="657"/>
    <line class="cls-4" x1="229.5" y1="621" x2="229.5" y2="657"/>
    <line class="cls-4" x1="220.5" y1="612" x2="220.5" y2="666"/>
    <line class="cls-4" x1="274.5" y1="666" x2="220.5" y2="666"/>
    <line class="cls-4" x1="274.5" y1="630" x2="274.5" y2="666"/>
    <line class="cls-4" x1="274.5" y1="612" x2="220.5" y2="612"/>
    <line class="cls-4" x1="265.5" y1="621" x2="265.5" y2="657"/>
    <line class="cls-4" x1="283.5" y1="657" x2="265.5" y2="657"/>
    <line class="cls-4" x1="265.5" y1="621" x2="301.5" y2="621"/>
    <line class="cls-4" x1="301.5" y1="657" x2="301.5" y2="621"/>
    <line class="cls-4" x1="319.5" y1="612" x2="292.5" y2="612"/>
    <line class="cls-4" x1="292.5" y1="666" x2="292.5" y2="612"/>
    <line class="cls-4" x1="346.5" y1="666" x2="292.5" y2="666"/>
    <line class="cls-4" x1="346.5" y1="612" x2="346.5" y2="666"/>
    <line class="cls-4" x1="337.5" y1="612" x2="346.5" y2="612"/>
    <line class="cls-4" x1="328.5" y1="567" x2="328.5" y2="639"/>
    <line class="cls-4" x1="400.5" y1="639" x2="328.5" y2="639"/>
    <line class="cls-4" x1="400.5" y1="567" x2="400.5" y2="639"/>
    <line class="cls-4" x1="364.5" y1="567" x2="400.5" y2="567"/>
    <line class="cls-4" x1="337.5" y1="549" x2="337.5" y2="603"/>
    <line class="cls-4" x1="391.5" y1="603" x2="391.5" y2="576"/>
    <line class="cls-4" x1="337.5" y1="603" x2="391.5" y2="603"/>
    <line class="cls-4" x1="337.5" y1="549" x2="391.5" y2="549"/>
    <line class="cls-4" x1="355.5" y1="558" x2="355.5" y2="666"/>
    <line class="cls-4" x1="463.5" y1="666" x2="355.5" y2="666"/>
    <line class="cls-4" x1="463.5" y1="558" x2="355.5" y2="558"/>
    <line class="cls-4" x1="463.5" y1="657" x2="463.5" y2="621"/>
    <line class="cls-4" x1="427.5" y1="657" x2="463.5" y2="657"/>
    <line class="cls-4" x1="427.5" y1="639" x2="427.5" y2="657"/>
    <line class="cls-4" x1="427.5" y1="621" x2="463.5" y2="621"/>
    <line class="cls-4" x1="463.5" y1="612" x2="463.5" y2="558"/>
    <line class="cls-4" x1="454.5" y1="603" x2="454.5" y2="567"/>
    <line class="cls-4" x1="418.5" y1="567" x2="454.5" y2="567"/>
    <line class="cls-4" x1="418.5" y1="603" x2="418.5" y2="567"/>
    <line class="cls-4" x1="436.5" y1="603" x2="418.5" y2="603"/>
    <line class="cls-4" x1="409.5" y1="630" x2="409.5" y2="594"/>
    <line class="cls-4" x1="445.5" y1="594" x2="445.5" y2="630"/>
    <line class="cls-4" x1="427.5" y1="630" x2="445.5" y2="630"/>
    <line class="cls-4" x1="445.5" y1="594" x2="409.5" y2="594"/>
    <line class="cls-4" x1="418.5" y1="612" x2="418.5" y2="648"/>
    <line class="cls-4" x1="382.5" y1="612" x2="391.5" y2="612"/>
    <line class="cls-4" x1="382.5" y1="648" x2="418.5" y2="648"/>
    <line class="cls-4" x1="382.5" y1="612" x2="382.5" y2="648"/>
    <line class="cls-4" x1="400.5" y1="486" x2="400.5" y2="549"/>
    <line class="cls-4" x1="463.5" y1="549" x2="400.5" y2="549"/>
    <line class="cls-4" x1="463.5" y1="486" x2="463.5" y2="549"/>
    <line class="cls-4" x1="400.5" y1="486" x2="463.5" y2="486"/>
    <line class="cls-4" x1="409.5" y1="495" x2="436.5" y2="495"/>
    <line class="cls-4" x1="454.5" y1="495" x2="454.5" y2="540"/>
    <line class="cls-4" x1="409.5" y1="495" x2="409.5" y2="540"/>
    <line class="cls-4" x1="454.5" y1="540" x2="409.5" y2="540"/>
    <line class="cls-4" x1="418.5" y1="513" x2="445.5" y2="513"/>
    <line class="cls-4" x1="445.5" y1="441" x2="445.5" y2="513"/>
    <line class="cls-4" x1="373.5" y1="441" x2="445.5" y2="441"/>
    <line class="cls-4" x1="373.5" y1="513" x2="391.5" y2="513"/>
    <line class="cls-4" x1="373.5" y1="441" x2="373.5" y2="513"/>
    <line class="cls-4" x1="391.5" y1="459" x2="391.5" y2="504"/>
    <line class="cls-4" x1="436.5" y1="504" x2="391.5" y2="504"/>
    <line class="cls-4" x1="436.5" y1="459" x2="436.5" y2="468"/>
    <line class="cls-4" x1="391.5" y1="459" x2="436.5" y2="459"/>
    <line class="cls-4" x1="337.5" y1="495" x2="382.5" y2="495"/>
    <line class="cls-4" x1="382.5" y1="450" x2="382.5" y2="495"/>
    <line class="cls-4" x1="337.5" y1="468" x2="337.5" y2="450"/>
    <line class="cls-4" x1="382.5" y1="450" x2="337.5" y2="450"/>
    <line class="cls-4" x1="355.5" y1="540" x2="364.5" y2="540"/>
    <line class="cls-4" x1="364.5" y1="504" x2="364.5" y2="540"/>
    <line class="cls-4" x1="328.5" y1="504" x2="328.5" y2="540"/>
    <line class="cls-4" x1="337.5" y1="540" x2="328.5" y2="540"/>
    <line class="cls-4" x1="328.5" y1="504" x2="364.5" y2="504"/>
    <line class="cls-4" x1="400.5" y1="477" x2="463.5" y2="477"/>
    <line class="cls-4" x1="463.5" y1="333" x2="463.5" y2="477"/>
    <line class="cls-4" x1="319.5" y1="333" x2="463.5" y2="333"/>
    <line class="cls-4" x1="364.5" y1="477" x2="319.5" y2="477"/>
    <line class="cls-4" x1="319.5" y1="333" x2="319.5" y2="477"/>
    <line class="cls-4" x1="328.5" y1="432" x2="328.5" y2="468"/>
    <line class="cls-4" x1="301.5" y1="432" x2="292.5" y2="432"/>
    <line class="cls-4" x1="292.5" y1="468" x2="292.5" y2="432"/>
    <line class="cls-4" x1="328.5" y1="468" x2="292.5" y2="468"/>
    <line class="cls-4" x1="310.5" y1="387" x2="310.5" y2="441"/>
    <line class="cls-4" x1="364.5" y1="441" x2="310.5" y2="441"/>
    <line class="cls-4" x1="364.5" y1="387" x2="364.5" y2="441"/>
    <line class="cls-4" x1="346.5" y1="387" x2="364.5" y2="387"/>
    <line class="cls-4" x1="355.5" y1="423" x2="328.5" y2="423"/>
    <line class="cls-4" x1="328.5" y1="342" x2="328.5" y2="423"/>
    <line class="cls-4" x1="409.5" y1="342" x2="328.5" y2="342"/>
    <line class="cls-4" x1="409.5" y1="423" x2="409.5" y2="342"/>
    <line class="cls-4" x1="382.5" y1="423" x2="409.5" y2="423"/>
    <line class="cls-4" x1="400.5" y1="378" x2="373.5" y2="378"/>
    <line class="cls-4" x1="373.5" y1="432" x2="373.5" y2="378"/>
    <line class="cls-4" x1="427.5" y1="432" x2="373.5" y2="432"/>
    <line class="cls-4" x1="418.5" y1="378" x2="427.5" y2="378"/>
    <line class="cls-4" x1="427.5" y1="432" x2="427.5" y2="378"/>
    <line class="cls-4" x1="418.5" y1="423" x2="418.5" y2="387"/>
    <line class="cls-4" x1="454.5" y1="387" x2="418.5" y2="387"/>
    <line class="cls-4" x1="436.5" y1="423" x2="454.5" y2="423"/>
    <line class="cls-4" x1="454.5" y1="387" x2="454.5" y2="423"/>
    <line class="cls-4" x1="391.5" y1="387" x2="391.5" y2="405"/>
    <line class="cls-4" x1="337.5" y1="405" x2="391.5" y2="405"/>
    <line class="cls-4" x1="337.5" y1="351" x2="337.5" y2="405"/>
    <line class="cls-4" x1="391.5" y1="351" x2="337.5" y2="351"/>
    <line class="cls-4" x1="391.5" y1="360" x2="391.5" y2="351"/>
    <line class="cls-4" x1="346.5" y1="315" x2="346.5" y2="261"/>
    <line class="cls-4" x1="454.5" y1="261" x2="346.5" y2="261"/>
    <line class="cls-4" x1="346.5" y1="360" x2="346.5" y2="369"/>
    <line class="cls-4" x1="454.5" y1="369" x2="454.5" y2="261"/>
    <line class="cls-4" x1="346.5" y1="369" x2="454.5" y2="369"/>
    <line class="cls-4" x1="418.5" y1="279" x2="418.5" y2="324"/>
    <line class="cls-4" x1="463.5" y1="279" x2="463.5" y2="324"/>
    <line class="cls-4" x1="445.5" y1="324" x2="418.5" y2="324"/>
    <line class="cls-4" x1="418.5" y1="279" x2="463.5" y2="279"/>
    <line class="cls-4" x1="409.5" y1="315" x2="382.5" y2="315"/>
    <line class="cls-4" x1="382.5" y1="270" x2="427.5" y2="270"/>
    <line class="cls-4" x1="427.5" y1="315" x2="427.5" y2="270"/>
    <line class="cls-4" x1="382.5" y1="270" x2="382.5" y2="315"/>
    <line class="cls-4" x1="400.5" y1="279" x2="400.5" y2="324"/>
    <line class="cls-4" x1="400.5" y1="252" x2="328.5" y2="252"/>
    <line class="cls-4" x1="328.5" y1="324" x2="400.5" y2="324"/>
    <line class="cls-4" x1="328.5" y1="252" x2="328.5" y2="324"/>
    <line class="cls-4" x1="247.5" y1="396" x2="238.5" y2="396"/>
    <line class="cls-4" x1="238.5" y1="351" x2="283.5" y2="351"/>
    <line class="cls-4" x1="283.5" y1="396" x2="283.5" y2="351"/>
    <line class="cls-4" x1="265.5" y1="396" x2="283.5" y2="396"/>
    <line class="cls-4" x1="238.5" y1="351" x2="238.5" y2="396"/>
    <line class="cls-4" x1="229.5" y1="378" x2="220.5" y2="378"/>
    <line class="cls-4" x1="220.5" y1="333" x2="220.5" y2="378"/>
    <line class="cls-4" x1="265.5" y1="333" x2="265.5" y2="378"/>
    <line class="cls-4" x1="247.5" y1="378" x2="265.5" y2="378"/>
    <line class="cls-4" x1="220.5" y1="333" x2="265.5" y2="333"/>
    <line class="cls-4" x1="202.5" y1="324" x2="301.5" y2="324"/>
    <line class="cls-4" x1="301.5" y1="423" x2="301.5" y2="324"/>
    <line class="cls-4" x1="265.5" y1="423" x2="301.5" y2="423"/>
    <line class="cls-4" x1="202.5" y1="324" x2="202.5" y2="423"/>
    <line class="cls-4" x1="247.5" y1="423" x2="202.5" y2="423"/>
    <line class="cls-4" x1="166.5" y1="441" x2="166.5" y2="387"/>
    <line class="cls-4" x1="256.5" y1="387" x2="256.5" y2="477"/>
    <line class="cls-4" x1="166.5" y1="468" x2="166.5" y2="477"/>
    <line class="cls-4" x1="256.5" y1="477" x2="166.5" y2="477"/>
    <line class="cls-4" x1="166.5" y1="387" x2="256.5" y2="387"/>
    <line class="cls-4" x1="175.5" y1="396" x2="193.5" y2="396"/>
    <line class="cls-4" x1="193.5" y1="450" x2="193.5" y2="396"/>
    <line class="cls-4" x1="148.5" y1="396" x2="139.5" y2="396"/>
    <line class="cls-4" x1="139.5" y1="450" x2="193.5" y2="450"/>
    <line class="cls-4" x1="139.5" y1="396" x2="139.5" y2="450"/>
    <line class="cls-4" x1="184.5" y1="441" x2="184.5" y2="432"/>
    <line class="cls-4" x1="184.5" y1="468" x2="220.5" y2="468"/>
    <line class="cls-4" x1="220.5" y1="432" x2="220.5" y2="468"/>
    <line class="cls-4" x1="184.5" y1="432" x2="220.5" y2="432"/>
    <line class="cls-4" x1="229.5" y1="450" x2="229.5" y2="432"/>
    <line class="cls-4" x1="265.5" y1="432" x2="265.5" y2="468"/>
    <line class="cls-4" x1="229.5" y1="468" x2="265.5" y2="468"/>
    <line class="cls-4" x1="229.5" y1="432" x2="265.5" y2="432"/>
    <line class="cls-4" x1="301.5" y1="459" x2="301.5" y2="450"/>
    <line class="cls-4" x1="274.5" y1="450" x2="301.5" y2="450"/>
    <line class="cls-4" x1="274.5" y1="477" x2="274.5" y2="450"/>
    <line class="cls-4" x1="301.5" y1="477" x2="274.5" y2="477"/>
    <line class="cls-4" x1="94.5" y1="279" x2="94.5" y2="378"/>
    <line class="cls-4" x1="193.5" y1="378" x2="193.5" y2="324"/>
    <line class="cls-4" x1="193.5" y1="306" x2="193.5" y2="279"/>
    <line class="cls-4" x1="94.5" y1="279" x2="193.5" y2="279"/>
    <line class="cls-4" x1="94.5" y1="378" x2="193.5" y2="378"/>
    <line class="cls-4" x1="166.5" y1="333" x2="166.5" y2="369"/>
    <line class="cls-4" x1="130.5" y1="333" x2="130.5" y2="369"/>
    <line class="cls-4" x1="166.5" y1="369" x2="130.5" y2="369"/>
    <line class="cls-4" x1="130.5" y1="333" x2="139.5" y2="333"/>
    <line class="cls-4" x1="157.5" y1="333" x2="166.5" y2="333"/>
    <line class="cls-4" x1="139.5" y1="342" x2="148.5" y2="342"/>
    <line class="cls-4" x1="148.5" y1="297" x2="148.5" y2="342"/>
    <line class="cls-4" x1="103.5" y1="297" x2="148.5" y2="297"/>
    <line class="cls-4" x1="103.5" y1="342" x2="103.5" y2="297"/>
    <line class="cls-4" x1="112.5" y1="342" x2="103.5" y2="342"/>
    <line class="cls-4" x1="148.5" y1="288" x2="121.5" y2="288"/>
    <line class="cls-4" x1="121.5" y1="351" x2="121.5" y2="288"/>
    <line class="cls-4" x1="184.5" y1="351" x2="121.5" y2="351"/>
    <line class="cls-4" x1="166.5" y1="288" x2="184.5" y2="288"/>
    <line class="cls-4" x1="184.5" y1="351" x2="184.5" y2="288"/>
    <line class="cls-4" x1="247.5" y1="459" x2="121.5" y2="459"/>
    <line class="cls-4" x1="121.5" y1="585" x2="121.5" y2="459"/>
    <line class="cls-4" x1="247.5" y1="585" x2="121.5" y2="585"/>
    <line class="cls-4" x1="247.5" y1="513" x2="247.5" y2="585"/>
    <line class="cls-4" x1="220.5" y1="486" x2="220.5" y2="540"/>
    <line class="cls-4" x1="166.5" y1="486" x2="166.5" y2="540"/>
    <line class="cls-4" x1="193.5" y1="540" x2="166.5" y2="540"/>
    <line class="cls-4" x1="166.5" y1="486" x2="220.5" y2="486"/>
    <line class="cls-4" x1="157.5" y1="468" x2="130.5" y2="468"/>
    <line class="cls-4" x1="130.5" y1="513" x2="130.5" y2="468"/>
    <line class="cls-4" x1="175.5" y1="513" x2="130.5" y2="513"/>
    <line class="cls-4" x1="175.5" y1="468" x2="175.5" y2="513"/>
    <line class="cls-4" x1="148.5" y1="522" x2="202.5" y2="522"/>
    <line class="cls-4" x1="202.5" y1="576" x2="202.5" y2="522"/>
    <line class="cls-4" x1="148.5" y1="540" x2="148.5" y2="576"/>
    <line class="cls-4" x1="202.5" y1="576" x2="148.5" y2="576"/>
    <line class="cls-4" x1="130.5" y1="558" x2="139.5" y2="558"/>
    <line class="cls-4" x1="157.5" y1="558" x2="157.5" y2="531"/>
    <line class="cls-4" x1="130.5" y1="531" x2="157.5" y2="531"/>
    <line class="cls-4" x1="130.5" y1="558" x2="130.5" y2="531"/>
    <line class="cls-4" x1="211.5" y1="495" x2="247.5" y2="495"/>
    <line class="cls-4" x1="211.5" y1="603" x2="211.5" y2="495"/>
    <line class="cls-4" x1="319.5" y1="603" x2="319.5" y2="495"/>
    <line class="cls-4" x1="265.5" y1="495" x2="319.5" y2="495"/>
    <line class="cls-4" x1="292.5" y1="504" x2="292.5" y2="567"/>
    <line class="cls-4" x1="211.5" y1="603" x2="319.5" y2="603"/>
    <line class="cls-4" x1="310.5" y1="585" x2="310.5" y2="549"/>
    <line class="cls-4" x1="274.5" y1="549" x2="310.5" y2="549"/>
    <line class="cls-4" x1="274.5" y1="558" x2="274.5" y2="549"/>
    <line class="cls-4" x1="265.5" y1="549" x2="265.5" y2="594"/>
    <line class="cls-4" x1="220.5" y1="594" x2="265.5" y2="594"/>
    <line class="cls-4" x1="220.5" y1="549" x2="220.5" y2="594"/>
    <line class="cls-4" x1="238.5" y1="549" x2="220.5" y2="549"/>
    <line class="cls-4" x1="238.5" y1="567" x2="229.5" y2="567"/>
    <line class="cls-4" x1="229.5" y1="504" x2="229.5" y2="567"/>
    <line class="cls-4" x1="292.5" y1="504" x2="229.5" y2="504"/>
    <line class="cls-4" x1="274.5" y1="567" x2="292.5" y2="567"/>
    <line class="cls-4" x1="274.5" y1="585" x2="310.5" y2="585"/>
    <line class="cls-4" x1="256.5" y1="486" x2="256.5" y2="576"/>
    <line class="cls-4" x1="301.5" y1="576" x2="256.5" y2="576"/>
    <line class="cls-4" x1="346.5" y1="486" x2="256.5" y2="486"/>
    <line class="cls-4" x1="346.5" y1="576" x2="346.5" y2="486"/>
    <line class="cls-4" x1="31.5" y1="540" x2="31.5" y2="531"/>
    <line class="cls-4" x1="31.5" y1="630" x2="40.5" y2="630"/>
    <line class="cls-4" x1="49.5" y1="621" x2="40.5" y2="621"/>
  </g>
  <g id="arrows">
    <polyline class="cls-1" points="4.24 4.24 9 9.01 4.24 13.77"/>
    <polyline class="cls-1" points="463.77 661.23 459 666 463.77 670.77"/>
  </g>
</svg>