<?xml version="1.0" encoding="UTF-8"?>
<svg id="Layer_2" data-name="Layer 2" xmlns="http://www.w3.org/2000/svg" viewBox="0 0 462.5 664">
  <defs>
    <style>
      .cls-1 {
        fill: none;
        stroke: #ebb5d4;
        stroke-miterlimit: 10;
        stroke-width: 7px;
      }
    </style>
  </defs>
  <g id="Layer_7" data-name="Layer 7">
    <path class="cls-1" d="
      M0 3.5 
      L108 3.5 
      L108 111.5 
      L9 111.5 
      L9 147.5 
      L45 147.5 
      L45 174.5 
      L36 174.5 
      L36 237.5 
      L108 237.5 
      L108 210.5 
      L63 210.5 
      L63 129.5 
      L117 129.5 
      L117 156.5 
      L189 156.5 
      L189 84.5 
      L306 84.5 
      L306 201.5 
      L234 201.5 
      L234 237.5 
      L198 237.5 
      L198 300.5 
      L261 300.5 
      L261 291.5 
      L252 291.5 
      L252 210.5 
      L333 210.5 
      L333 246.5 
      L324 246.5 
      L324 318.5 
      L396 318.5 
      L396 309.5 
      L378 309.5 
      L378 264.5 
      L423 264.5 
      L423 273.5 
      L450 273.5 
      L450 327.5 
      L459 327.5 
      L459 471.5 
      L441 471.5 
      L441 435.5 
      L369 435.5 
      L369 489.5 
      L342 489.5 
      L342 543.5 
      L333 543.5 
      L333 597.5 
      L351 597.5 
      L351 660.5 
      L459 660.5
    " />
  </g>
</svg>