<?xml version="1.0" encoding="UTF-8"?>
<svg id="Layer_2" data-name="Layer 2" xmlns="http://www.w3.org/2000/svg" viewBox="0 0 462.5 664">
  <defs>
    <style>
      .cls-1 {
        fill: none;
        stroke: #ebb5d4;
        stroke-miterlimit: 10;
        stroke-width: 7px;
      }
    </style>
  </defs>
  <g id="Layer_7" data-name="Layer 7">
    <polyline class="cls-1" points="0 3.5 108 3.5 108 111.5 9 111.5 9 147.5 45 147.5 45 174.5 36 174.5 36 237.5 108 237.5 108 210.5 63 210.5 63 129.5 117 129.5 117 156.5 189 156.5 189 84.5 306 84.5 306 201.5 234 201.5 234 237.5 198 237.5 198 300.5 261 300.5 261 291.5 252 291.5 252 210.5 333 210.5 333 246.5 324 246.5 324 318.5 396 318.5 396 309.5 378 309.5 378 264.5 423 264.5 423 273.5 450 273.5 450 327.5 459 327.5 459 471.5 441 471.5 441 435.5 369 435.5 369 489.5 342 489.5 342 543.5 333 543.5 333 597.5 351 597.5 351 660.5 459 660.5"/>
  </g>
</svg>